<svg width="28" height="28" viewBox="0 0 28 28" fill="none" xmlns="http://www.w3.org/2000/svg">
<path d="M14 25.6666C12.3861 25.6666 10.8695 25.3602 9.45001 24.7473C8.03057 24.1344 6.79584 23.3033 5.74584 22.2541C4.69584 21.2041 3.86479 19.9694 3.25268 18.5499C2.64057 17.1305 2.33412 15.6138 2.33334 13.9999C2.33334 10.986 3.33473 8.37077 5.33751 6.1541C7.34029 3.93744 9.8389 2.68327 12.8333 2.3916V5.8916C10.8111 6.16382 9.1389 7.06799 7.81668 8.6041C6.49445 10.1402 5.83334 11.9388 5.83334 13.9999C5.83334 16.2749 6.6259 18.205 8.21101 19.7901C9.79612 21.3752 11.7258 22.1674 14 22.1666C15.2445 22.1666 16.4259 21.9041 17.5443 21.3791C18.6628 20.8541 19.6202 20.1055 20.4167 19.1333L23.45 20.8833C22.3417 22.3999 20.9611 23.5763 19.3083 24.4124C17.6556 25.2485 15.8861 25.6666 14 25.6666ZM24.675 18.7249L21.6417 16.9749C21.8167 16.4888 21.9477 15.9977 22.0348 15.5014C22.122 15.0052 22.1659 14.5047 22.1667 13.9999C22.1667 11.9388 21.5056 10.1402 20.1833 8.6041C18.8611 7.06799 17.1889 6.16382 15.1667 5.8916V2.3916C18.1611 2.68327 20.6597 3.93744 22.6625 6.1541C24.6653 8.37077 25.6667 10.986 25.6667 13.9999C25.6667 14.8166 25.594 15.6235 25.4485 16.4208C25.3031 17.218 25.0452 17.986 24.675 18.7249Z" fill="#677083"/>
</svg>
