<svg width="28" height="28" viewBox="0 0 28 28" fill="none" xmlns="http://www.w3.org/2000/svg">
<path fill-rule="evenodd" clip-rule="evenodd" d="M12.046 9.12786C12.1946 9.19928 12.3199 9.3112 12.4076 9.45072C12.4954 9.59025 12.5419 9.75172 12.5419 9.91653V18.0832C12.5419 18.3153 12.4497 18.5378 12.2856 18.7019C12.1215 18.866 11.8989 18.9582 11.6669 18.9582C11.4348 18.9582 11.2123 18.866 11.0482 18.7019C10.8841 18.5378 10.7919 18.3153 10.7919 18.0832V11.7365L9.29737 12.9335C9.20759 13.0053 9.10455 13.0587 8.99414 13.0907C8.88372 13.1226 8.7681 13.1325 8.65386 13.1198C8.53962 13.1071 8.429 13.0719 8.32833 13.0165C8.22766 12.961 8.1389 12.8862 8.06712 12.7964C7.99535 12.7067 7.94195 12.6036 7.91 12.4932C7.87804 12.3828 7.86814 12.2672 7.88087 12.1529C7.90658 11.9222 8.02289 11.7112 8.20421 11.5662L11.1209 9.23286C11.2496 9.13005 11.4047 9.06566 11.5683 9.04709C11.732 9.02851 11.8976 9.05651 12.046 9.12786ZM16.6252 10.7915C16.3158 10.7915 16.019 10.9144 15.8003 11.1332C15.5815 11.352 15.4585 11.6488 15.4585 11.9582V16.0415C15.4585 16.3509 15.5815 16.6477 15.8003 16.8665C16.019 17.0853 16.3158 17.2082 16.6252 17.2082C16.9346 17.2082 17.2314 17.0853 17.4502 16.8665C17.669 16.6477 17.7919 16.3509 17.7919 16.0415V11.9582C17.7919 11.6488 17.669 11.352 17.4502 11.1332C17.2314 10.9144 16.9346 10.7915 16.6252 10.7915ZM13.7085 11.9582C13.7085 11.1846 14.0158 10.4428 14.5628 9.8958C15.1098 9.34882 15.8517 9.04153 16.6252 9.04153C17.3988 9.04153 18.1406 9.34882 18.6876 9.8958C19.2346 10.4428 19.5419 11.1846 19.5419 11.9582V16.0415C19.5419 16.8151 19.2346 17.5569 18.6876 18.1039C18.1406 18.6509 17.3988 18.9582 16.6252 18.9582C15.8517 18.9582 15.1098 18.6509 14.5628 18.1039C14.0158 17.5569 13.7085 16.8151 13.7085 16.0415V11.9582Z" fill="white"/>
<path fill-rule="evenodd" clip-rule="evenodd" d="M13.2115 1.95409C13.2829 1.80555 13.3948 1.68021 13.5344 1.59249C13.6739 1.50477 13.8354 1.45824 14.0002 1.45825C14.8577 1.45825 15.6965 1.54459 16.5085 1.70909C22.2322 2.87109 26.5418 7.93092 26.5418 13.9999C26.5418 20.9264 20.9267 26.5416 14.0002 26.5416C7.07366 26.5416 1.4585 20.9264 1.4585 13.9999C1.4585 8.85492 4.556 4.43675 8.9835 2.50242C9.08938 2.45225 9.20427 2.42386 9.32133 2.41893C9.4384 2.41401 9.55526 2.43264 9.66499 2.47373C9.77472 2.51482 9.87508 2.57753 9.96011 2.65814C10.0451 2.73875 10.1131 2.83562 10.16 2.94299C10.2069 3.05037 10.2317 3.16607 10.2331 3.28324C10.2344 3.4004 10.2122 3.51663 10.1677 3.62505C10.1233 3.73346 10.0575 3.83185 9.97436 3.91436C9.89117 3.99688 9.79226 4.06185 9.6835 4.10542C7.90044 4.88361 6.36092 6.12933 5.22782 7.71076C4.09472 9.2922 3.4102 11.1505 3.24668 13.0891C3.08317 15.0277 3.44674 16.9744 4.29893 18.7233C5.15112 20.4722 6.46024 21.9582 8.08775 23.0241C9.71525 24.0899 11.6006 24.696 13.5444 24.7782C15.4881 24.8603 17.4179 24.4156 19.1295 23.4909C20.8412 22.5662 22.2711 21.1959 23.2678 19.5252C24.2646 17.8545 24.7912 15.9454 24.7918 13.9999C24.7915 11.698 24.0555 9.45651 22.6913 7.60244C21.3271 5.74837 19.406 4.3788 17.2085 3.69359V5.24992C17.2087 5.43138 17.1525 5.60842 17.0477 5.75653C16.9428 5.90464 16.7945 6.01649 16.6233 6.07659C16.4521 6.1367 16.2664 6.14208 16.092 6.09201C15.9176 6.04193 15.7631 5.93887 15.6498 5.79708L13.3165 2.88042C13.2135 2.75161 13.1489 2.5963 13.1304 2.4324C13.1118 2.2685 13.1399 2.10269 13.2115 1.95409Z" fill="white"/>
</svg>
