<svg width="26" height="26" viewBox="0 0 26 26" fill="none" xmlns="http://www.w3.org/2000/svg">
<path d="M2.16652 13C2.16706 10.6249 2.94812 8.31584 4.3895 6.42811C5.83087 4.54037 7.85268 3.17863 10.1438 2.55246C12.4348 1.92629 14.8682 2.07039 17.0693 2.96259C19.2705 3.85479 21.1175 5.44563 22.326 7.49029C23.5345 9.53495 24.0375 11.9201 23.7578 14.2787C23.478 16.6372 22.4308 18.8385 20.7775 20.5437C19.1242 22.2488 16.9563 23.3634 14.6075 23.7159C12.2587 24.0684 9.85918 23.6392 7.77818 22.4944L3.56618 23.777C3.37831 23.8343 3.17842 23.8394 2.98788 23.7917C2.79735 23.7441 2.62334 23.6456 2.48447 23.5068C2.3456 23.3679 2.24709 23.1939 2.19948 23.0033C2.15187 22.8128 2.15695 22.6129 2.21418 22.425L3.49685 18.2065C2.62142 16.611 2.16378 14.82 2.16652 13ZM8.66652 11.9167C8.66652 12.204 8.78065 12.4796 8.98382 12.6827C9.18698 12.8859 9.46253 13 9.74985 13H16.2498C16.5372 13 16.8127 12.8859 17.0159 12.6827C17.219 12.4796 17.3332 12.204 17.3332 11.9167C17.3332 11.6294 17.219 11.3538 17.0159 11.1507C16.8127 10.9475 16.5372 10.8334 16.2498 10.8334H9.74985C9.46253 10.8334 9.18698 10.9475 8.98382 11.1507C8.78065 11.3538 8.66652 11.6294 8.66652 11.9167ZM9.74985 15.1667C9.46253 15.1667 9.18698 15.2809 8.98382 15.484C8.78065 15.6872 8.66652 15.9627 8.66652 16.25C8.66652 16.5374 8.78065 16.8129 8.98382 17.0161C9.18698 17.2192 9.46253 17.3334 9.74985 17.3334H14.0832C14.3705 17.3334 14.646 17.2192 14.8492 17.0161C15.0524 16.8129 15.1665 16.5374 15.1665 16.25C15.1665 15.9627 15.0524 15.6872 14.8492 15.484C14.646 15.2809 14.3705 15.1667 14.0832 15.1667H9.74985Z" fill="white"/>
</svg>
