<svg width="28" height="28" viewBox="0 0 28 28" fill="none" xmlns="http://www.w3.org/2000/svg">
<path d="M8.16667 8.1665H7.00001C6.38117 8.1665 5.78767 8.41234 5.35009 8.84992C4.9125 9.28751 4.66667 9.881 4.66667 10.4998V20.9998C4.66667 21.6187 4.9125 22.2122 5.35009 22.6498C5.78767 23.0873 6.38117 23.3332 7.00001 23.3332H17.5C18.1188 23.3332 18.7123 23.0873 19.1499 22.6498C19.5875 22.2122 19.8333 21.6187 19.8333 20.9998V19.8332" stroke="#677083" stroke-width="2" stroke-linecap="round" stroke-linejoin="round"/>
<path d="M18.6667 5.83321L22.1667 9.33321M23.7825 7.68238C24.242 7.22289 24.5001 6.59969 24.5001 5.94988C24.5001 5.30007 24.242 4.67687 23.7825 4.21738C23.323 3.75789 22.6998 3.49976 22.05 3.49976C21.4002 3.49976 20.777 3.75789 20.3175 4.21738L10.5 13.9999V17.4999H14L23.7825 7.68238Z" stroke="#677083" stroke-width="2" stroke-linecap="round" stroke-linejoin="round"/>
</svg>
