<svg width="12" height="22" viewBox="0 0 12 22" fill="none" xmlns="http://www.w3.org/2000/svg">
<path d="M8.56683 0.354248C7.13577 0.354248 5.76331 0.922736 4.7514 1.93465C3.73948 2.94657 3.171 4.31902 3.171 5.75008V8.75425H0.283496C0.138829 8.75425 0.0209961 8.87092 0.0209961 9.01675V12.9834C0.0209961 13.1281 0.137663 13.2459 0.283496 13.2459H3.171V21.3834C3.171 21.5281 3.28766 21.6459 3.4335 21.6459H7.40016C7.54483 21.6459 7.66266 21.5292 7.66266 21.3834V13.2459H10.5758C10.696 13.2459 10.801 13.1642 10.8302 13.0476L11.8218 9.08091C11.8316 9.04221 11.8324 9.00179 11.8242 8.96272C11.816 8.92366 11.7989 8.88698 11.7744 8.85549C11.7499 8.82399 11.7185 8.7985 11.6827 8.78096C11.6468 8.76341 11.6074 8.75428 11.5675 8.75425H7.66266V5.75008C7.66266 5.63134 7.68605 5.51377 7.73149 5.40407C7.77693 5.29437 7.84353 5.1947 7.92749 5.11074C8.01145 5.02678 8.11112 4.96018 8.22082 4.91474C8.33052 4.8693 8.44809 4.84591 8.56683 4.84591H11.6002C11.7448 4.84591 11.8627 4.72925 11.8627 4.58342V0.616748C11.8627 0.472081 11.746 0.354248 11.6002 0.354248H8.56683Z" fill="#ABABAB"/>
</svg>
