<svg width="18" height="14" viewBox="0 0 18 14" fill="none" xmlns="http://www.w3.org/2000/svg">
<path d="M17.364 7.7071C17.5514 7.51957 17.6567 7.26526 17.6567 7.0001C17.6567 6.73493 17.5514 6.48063 17.364 6.2931L11.707 0.636099C11.6147 0.540588 11.5044 0.464406 11.3824 0.411997C11.2604 0.359588 11.1291 0.332002 10.9964 0.330848C10.8636 0.329694 10.7319 0.354996 10.609 0.405277C10.4861 0.455558 10.3744 0.529811 10.2806 0.623704C10.1867 0.717596 10.1124 0.829248 10.0621 0.952144C10.0118 1.07504 9.98655 1.20672 9.9877 1.3395C9.98885 1.47228 10.0164 1.6035 10.0688 1.7255C10.1213 1.84751 10.1974 1.95785 10.293 2.0501L14.243 6.0001L0.999952 6.0001C0.734735 6.0001 0.480381 6.10546 0.292845 6.29299C0.105308 6.48053 -4.79636e-05 6.73488 -4.79752e-05 7.0001C-4.79868e-05 7.26531 0.105308 7.51967 0.292844 7.7072C0.480381 7.89474 0.734735 8.0001 0.999952 8.0001L14.243 8.0001L10.293 11.9501C10.1108 12.1387 10.01 12.3913 10.0123 12.6535C10.0146 12.9157 10.1197 13.1665 10.3051 13.3519C10.4905 13.5373 10.7414 13.6425 11.0036 13.6448C11.2657 13.6471 11.5183 13.5463 11.707 13.3641L17.364 7.7071Z" fill="white"/>
</svg>
