<svg width="22" height="22" viewBox="0 0 22 22" fill="none" xmlns="http://www.w3.org/2000/svg">
<path d="M21.0897 9.09688H11.2104V13.1574H16.8542C16.6108 14.4699 15.8726 15.5801 14.7597 16.3238C13.819 16.9527 12.6187 17.3246 11.2077 17.3246C8.47607 17.3246 6.16553 15.4789 5.33975 12.9988C5.13193 12.3699 5.01162 11.6973 5.01162 11.0055C5.01162 10.3137 5.13193 9.64102 5.33975 9.01211C6.16826 6.53477 8.47881 4.68906 11.2104 4.68906C12.7499 4.68906 14.1308 5.21953 15.219 6.25859L18.2269 3.24805C16.4085 1.55273 14.0378 0.513672 11.2104 0.513672C7.11162 0.513672 3.56514 2.86523 1.83975 6.29414C1.12881 7.71055 0.724121 9.31289 0.724121 11.0082C0.724121 12.7035 1.12881 14.3031 1.83975 15.7195C3.56514 19.1484 7.11162 21.5 11.2104 21.5C14.0433 21.5 16.4167 20.5594 18.1503 18.957C20.1327 17.1305 21.2784 14.4398 21.2784 11.2434C21.2784 10.4996 21.2128 9.78594 21.0897 9.09688Z" fill="#ABABAB"/>
</svg>
