<svg width="23" height="21" viewBox="0 0 23 21" fill="none" xmlns="http://www.w3.org/2000/svg">
<path d="M10.0236 19.128L10.0229 19.1274C7.18046 16.5735 4.86161 14.4865 3.24752 12.5299C1.63877 10.5797 0.783691 8.82115 0.783691 6.93254C0.783691 3.84576 3.21689 1.43799 6.33369 1.43799C8.09824 1.43799 9.79882 2.25446 10.9058 3.53238L11.2837 3.96869L11.6616 3.53238C12.7686 2.25446 14.4691 1.43799 16.2337 1.43799C19.3505 1.43799 21.7837 3.84576 21.7837 6.93254C21.7837 8.82115 20.9286 10.5797 19.3199 12.5299C17.7058 14.4865 15.3869 16.5735 12.5445 19.1274L12.5438 19.128L11.2837 20.2646L10.0236 19.128Z" fill="red" stroke="white"/>
</svg>
