<svg width="24" height="22" viewBox="0 0 24 22" fill="none" xmlns="http://www.w3.org/2000/svg">
<path d="M12 0.5C13.2377 0.5 14.4247 0.991665 15.2998 1.86683C16.175 2.742 16.6667 3.92899 16.6667 5.16667C16.6667 6.01833 16.445 6.81167 16.0367 7.5H19C20.1083 7.5 21.0417 8.28167 21.275 9.32C23.62 18.665 23.6667 18.91 23.6667 19.1667C23.6667 19.7855 23.4208 20.379 22.9833 20.8166C22.5457 21.2542 21.9522 21.5 21.3333 21.5H2.66668C2.04784 21.5 1.45435 21.2542 1.01676 20.8166C0.579176 20.379 0.333344 19.7855 0.333344 19.1667C0.333344 18.91 0.38001 18.665 2.72501 9.32C2.95834 8.28167 3.89168 7.5 5.00001 7.5H7.96334C7.54629 6.79347 7.32857 5.98709 7.33334 5.16667C7.33334 3.92899 7.82501 2.742 8.70018 1.86683C9.57535 0.991665 10.7623 0.5 12 0.5ZM12 2.83333C11.3812 2.83333 10.7877 3.07917 10.3501 3.51675C9.91251 3.95434 9.66668 4.54783 9.66668 5.16667C9.66668 5.7855 9.91251 6.379 10.3501 6.81658C10.7877 7.25417 11.3812 7.5 12 7.5C12.6188 7.5 13.2123 7.25417 13.6499 6.81658C14.0875 6.379 14.3333 5.7855 14.3333 5.16667C14.3333 4.54783 14.0875 3.95434 13.6499 3.51675C13.2123 3.07917 12.6188 2.83333 12 2.83333ZM5.00001 9.83333V19.1667H7.33334V16.25L8.50001 17.4167V19.1667H10.8333V16.8333L8.50001 14.5L10.8333 12.1667V9.83333H8.50001V11.5833L7.33334 12.75V9.83333H5.00001ZM15.5 9.83333C14.205 9.83333 13.1667 10.8717 13.1667 12.1667V16.8333C13.1667 18.1283 14.205 19.1667 15.5 19.1667H19V13.3333H16.6667V16.8333H15.5V12.1667H19V9.83333H15.5Z" fill="#677083"/>
</svg>
