<svg width="25" height="26" viewBox="0 0 25 26" fill="none" xmlns="http://www.w3.org/2000/svg">
<path fill-rule="evenodd" clip-rule="evenodd" d="M4.5 0.5C3.50544 0.5 2.55161 0.895088 1.84835 1.59835C1.14509 2.30161 0.75 3.25544 0.75 4.25V21.75C0.75 22.7446 1.14509 23.6984 1.84835 24.4017C2.55161 25.1049 3.50544 25.5 4.5 25.5H12C12.9946 25.5 13.9484 25.1049 14.6517 24.4017C15.3549 23.6984 15.75 22.7446 15.75 21.75V4.25C15.75 3.25544 15.3549 2.30161 14.6517 1.59835C13.9484 0.895088 12.9946 0.5 12 0.5H4.5ZM17.3662 7.11625C17.6007 6.88191 17.9185 6.75027 18.25 6.75027C18.5815 6.75027 18.8993 6.88191 19.1338 7.11625L24.1338 12.1163C24.3681 12.3507 24.4997 12.6685 24.4997 13C24.4997 13.3315 24.3681 13.6493 24.1338 13.8837L19.1338 18.8838C18.898 19.1114 18.5822 19.2374 18.2545 19.2346C17.9268 19.2317 17.6132 19.1003 17.3815 18.8685C17.1497 18.6368 17.0183 18.3232 17.0154 17.9955C17.0126 17.6678 17.1386 17.352 17.3662 17.1163L20.2325 14.25H9.5C9.16848 14.25 8.85054 14.1183 8.61612 13.8839C8.3817 13.6495 8.25 13.3315 8.25 13C8.25 12.6685 8.3817 12.3505 8.61612 12.1161C8.85054 11.8817 9.16848 11.75 9.5 11.75H20.2325L17.3662 8.88375C17.1319 8.64934 17.0003 8.33146 17.0003 8C17.0003 7.66854 17.1319 7.35066 17.3662 7.11625Z" fill="#677083"/>
</svg>
