<svg width="28" height="28" viewBox="0 0 28 28" fill="none" xmlns="http://www.w3.org/2000/svg">
<path d="M23.534 7.87491H21.3628L16.0358 13.1996C16.2193 13.6672 16.2362 14.1837 16.0836 14.6622C15.9311 15.1408 15.6184 15.5522 15.1981 15.8274C14.7779 16.1025 14.2757 16.2245 13.7761 16.173C13.2764 16.1214 12.8098 15.8993 12.4546 15.5441C12.0994 15.189 11.8774 14.7223 11.8258 14.2227C11.7742 13.723 11.8963 13.2209 12.1714 12.8006C12.4465 12.3804 12.8579 12.0677 13.3365 11.9151C13.8151 11.7626 14.3316 11.7794 14.7992 11.9629L20.125 6.63708V4.46591C20.1251 4.17539 20.2405 3.89678 20.4458 3.69125L22.4642 1.67291C22.5015 1.63521 22.5483 1.60843 22.5998 1.59548C22.6512 1.58252 22.7051 1.58388 22.7558 1.59941C22.8597 1.62975 22.9367 1.71608 22.9577 1.82225L23.4943 4.50675L26.1777 5.04341C26.2827 5.06441 26.369 5.14141 26.3993 5.24525C26.4147 5.29569 26.416 5.34933 26.4033 5.40049C26.3905 5.45164 26.3642 5.49838 26.327 5.53575L24.3075 7.55408C24.206 7.65577 24.0854 7.73645 23.9527 7.7915C23.82 7.84655 23.6777 7.8749 23.534 7.87491Z" fill="#677083"/>
<path d="M3.0625 14C3.0625 16.9008 4.21484 19.6828 6.26602 21.734C8.3172 23.7852 11.0992 24.9375 14 24.9375C15.4363 24.9375 16.8586 24.6546 18.1856 24.1049C19.5126 23.5553 20.7183 22.7496 21.734 21.734C22.7496 20.7183 23.5553 19.5126 24.1049 18.1856C24.6546 16.8586 24.9375 15.4363 24.9375 14C24.9375 12.9523 24.7905 11.9397 24.5163 10.9818C24.4618 10.7619 24.4948 10.5294 24.6082 10.3333C24.7217 10.1372 24.9068 9.99267 25.1246 9.93024C25.3424 9.86782 25.5759 9.89232 25.776 9.99858C25.9761 10.1049 26.1272 10.2846 26.1975 10.5C26.5172 11.613 26.6875 12.7867 26.6875 14C26.6875 21.007 21.007 26.6875 14 26.6875C6.993 26.6875 1.3125 21.007 1.3125 14C1.3125 6.99301 6.993 1.31251 14 1.31251C15.1842 1.31134 16.3613 1.47584 17.5 1.80134C17.611 1.83248 17.7148 1.88526 17.8054 1.95665C17.8959 2.02803 17.9715 2.11661 18.0277 2.21729C18.0839 2.31797 18.1196 2.42877 18.1329 2.54331C18.1461 2.65786 18.1366 2.77389 18.1049 2.88474C18.0731 2.99559 18.0198 3.09908 17.9479 3.18924C17.876 3.27941 17.787 3.35448 17.686 3.41014C17.585 3.46579 17.4741 3.50094 17.3594 3.51356C17.2448 3.52618 17.1288 3.51603 17.0182 3.48367C16.0366 3.20336 15.0208 3.0616 14 3.06251C11.0992 3.06251 8.3172 4.21485 6.26602 6.26603C4.21484 8.3172 3.0625 11.0992 3.0625 14Z" fill="#677083"/>
<path d="M8.31249 14C8.31575 14.7727 8.47646 15.5367 8.78482 16.2452C9.09317 16.9537 9.5427 17.592 10.106 18.1209C10.6692 18.6499 11.3344 19.0586 12.0608 19.3219C12.7873 19.5853 13.5598 19.6978 14.3312 19.6526C15.1026 19.6075 15.8567 19.4056 16.5474 19.0592C17.2382 18.7129 17.8511 18.2294 18.3488 17.6383C18.8464 17.0472 19.2184 16.3608 19.4419 15.6211C19.6655 14.8815 19.7359 14.104 19.649 13.3362C19.6245 13.1807 19.6425 13.0214 19.7011 12.8753C19.7598 12.7292 19.8568 12.6017 19.982 12.5063C20.1072 12.4109 20.2559 12.3511 20.4123 12.3333C20.5687 12.3155 20.727 12.3403 20.8705 12.4052C21.1633 12.5358 21.3605 12.8147 21.3862 13.1343C21.5673 14.6688 21.2659 16.2216 20.5239 17.5768C19.7818 18.9321 18.636 20.0225 17.2456 20.6965C15.8553 21.3705 14.2895 21.5946 12.7659 21.3377C11.2423 21.0807 9.83658 20.3555 8.74416 19.2628C7.65204 18.1713 6.92664 16.767 6.66857 15.2447C6.41051 13.7224 6.63256 12.1574 7.30394 10.767C7.97531 9.37653 9.06274 8.22945 10.4154 7.48485C11.768 6.74025 13.3189 6.43502 14.8528 6.6115C14.9688 6.62226 15.0814 6.65606 15.1842 6.71092C15.2869 6.76578 15.3776 6.84059 15.4511 6.93098C15.5245 7.02136 15.5792 7.12549 15.6118 7.23728C15.6445 7.34906 15.6545 7.46624 15.6413 7.58195C15.6281 7.69766 15.592 7.80956 15.535 7.91111C15.478 8.01266 15.4012 8.10181 15.3093 8.17333C15.2174 8.24485 15.1122 8.2973 14.9997 8.32761C14.8873 8.35791 14.7699 8.36547 14.6545 8.34983C13.8577 8.25771 13.0504 8.33514 12.2857 8.57703C11.5209 8.81892 10.8159 9.2198 10.217 9.75337C9.61812 10.2869 9.13882 10.9411 8.81059 11.673C8.48236 12.4049 8.31261 13.1979 8.31249 14Z" fill="#677083"/>
</svg>
