<svg width="25" height="24" viewBox="0 0 25 24" fill="none" xmlns="http://www.w3.org/2000/svg">
<path d="M8.85206 20.242C9.28721 20.7922 9.84171 21.2364 10.4737 21.541C11.1056 21.8455 11.7985 22.0025 12.5001 22C13.2016 22.0025 13.8945 21.8455 14.5264 21.541C15.1584 21.2364 15.7129 20.7922 16.1481 20.242C13.7271 20.5702 11.273 20.5702 8.85206 20.242ZM19.2501 9V9.704C19.2501 10.549 19.4901 11.375 19.9421 12.078L21.0501 13.801C22.0611 15.375 21.2891 17.514 19.5301 18.011C14.9338 19.313 10.0663 19.313 5.47006 18.011C3.71106 17.514 2.93906 15.375 3.95006 13.801L5.05806 12.078C5.51164 11.3694 5.75217 10.5454 5.75106 9.704V9C5.75106 5.134 8.77306 2 12.5001 2C16.2271 2 19.2501 5.134 19.2501 9Z" fill="#18C0C1"/>
</svg>
