<svg width="54" height="54" viewBox="0 0 54 54" fill="none" xmlns="http://www.w3.org/2000/svg">
<path fill-rule="evenodd" clip-rule="evenodd" d="M27 53.938C30.48 53.938 33.926 53.2525 37.1411 51.9208C40.3562 50.589 43.2776 48.6371 45.7383 46.1763C48.1991 43.7156 50.1511 40.7942 51.4828 37.5791C52.8146 34.364 53.5 30.918 53.5 27.438C53.5 23.958 52.8146 20.512 51.4828 17.2969C50.1511 14.0817 48.1991 11.1604 45.7383 8.69966C43.2776 6.23891 40.3562 4.28693 37.1411 2.95518C33.926 1.62343 30.48 0.937988 27 0.937988C19.9718 0.937988 13.2314 3.72994 8.26167 8.69966C3.29196 13.6694 0.5 20.4098 0.5 27.438C0.5 34.4662 3.29196 41.2066 8.26167 46.1763C13.2314 51.146 19.9718 53.938 27 53.938ZM23.4166 15.6308L40.0351 24.8645C40.4939 25.1196 40.8761 25.4927 41.1422 25.9452C41.4084 26.3977 41.5487 26.9131 41.5487 27.438C41.5487 27.9629 41.4084 28.4783 41.1422 28.9308C40.8761 29.3833 40.4939 29.7564 40.0351 30.0114L23.4166 39.2452C22.8785 39.5443 22.2716 39.6976 21.656 39.69C21.0404 39.6823 20.4375 39.5139 19.907 39.2015C19.3765 38.8891 18.9369 38.4435 18.6316 37.9089C18.3264 37.3743 18.1661 36.7692 18.1667 36.1535V18.7224C18.1661 18.1068 18.3264 17.5017 18.6316 16.9671C18.9369 16.4324 19.3765 15.9869 19.907 15.6745C20.4375 15.3621 21.0404 15.1937 21.656 15.186C22.2716 15.1784 22.8785 15.3317 23.4166 15.6308Z" fill="white"/>
</svg>
