<svg width="47" height="47" viewBox="0 0 47 47" fill="none" xmlns="http://www.w3.org/2000/svg">
<path fill-rule="evenodd" clip-rule="evenodd" d="M23.5 47C26.5861 47 29.6419 46.3922 32.4931 45.2112C35.3442 44.0302 37.9348 42.2992 40.117 40.117C42.2992 37.9348 44.0302 35.3442 45.2112 32.4931C46.3922 29.6419 47 26.5861 47 23.5C47 20.4139 46.3922 17.3581 45.2112 14.5069C44.0302 11.6558 42.2992 9.06517 40.117 6.88299C37.9348 4.70081 35.3442 2.96982 32.4931 1.78883C29.6419 0.607845 26.5861 -4.59859e-08 23.5 0C17.2674 9.28728e-08 11.2901 2.47589 6.88299 6.88299C2.47589 11.2901 0 17.2674 0 23.5C0 29.7326 2.47589 35.7099 6.88299 40.117C11.2901 44.5241 17.2674 47 23.5 47ZM20.3223 13.0294L35.0594 21.2179C35.4662 21.4441 35.8052 21.775 36.0412 22.1762C36.2772 22.5774 36.4017 23.0345 36.4017 23.5C36.4017 23.9655 36.2772 24.4226 36.0412 24.8238C35.8052 25.2251 35.4662 25.5559 35.0594 25.7821L20.3223 33.9706C19.8451 34.2358 19.3069 34.3717 18.761 34.365C18.2151 34.3582 17.6804 34.2088 17.21 33.9318C16.7396 33.6548 16.3497 33.2596 16.079 32.7855C15.8083 32.3114 15.6661 31.7748 15.6667 31.2289V15.7711C15.6661 15.2252 15.8083 14.6886 16.079 14.2145C16.3497 13.7404 16.7396 13.3452 17.21 13.0682C17.6804 12.7912 18.2151 12.6418 18.761 12.635C19.3069 12.6283 19.8451 12.7642 20.3223 13.0294Z" fill="#F4F5F7"/>
</svg>
