<svg width="21" height="21" viewBox="0 0 21 21" fill="none" xmlns="http://www.w3.org/2000/svg">
<path d="M20 3.26669L17.5333 0.800028C17.3213 0.597879 17.0396 0.485107 16.7467 0.485107C16.4537 0.485107 16.172 0.597879 15.96 0.800028L13.7667 3.00003H2C1.64638 3.00003 1.30724 3.1405 1.05719 3.39055C0.807142 3.6406 0.666667 3.97974 0.666667 4.33336V19C0.666667 19.3536 0.807142 19.6928 1.05719 19.9428C1.30724 20.1929 1.64638 20.3334 2 20.3334H16.6667C17.0203 20.3334 17.3594 20.1929 17.6095 19.9428C17.8595 19.6928 18 19.3536 18 19V6.84003L20 4.84003C20.2084 4.63128 20.3255 4.34835 20.3255 4.05336C20.3255 3.75837 20.2084 3.47544 20 3.26669ZM10.5533 12.42L7.76 13.04L8.42667 10.2734L14.7933 3.89336L16.9467 6.04669L10.5533 12.42ZM17.6667 5.2867L15.5133 3.13336L16.7467 1.90003L18.9 4.05336L17.6667 5.2867Z" fill="#677083"/>
</svg>
