<svg width="28" height="28" viewBox="0 0 28 28" fill="none" xmlns="http://www.w3.org/2000/svg">
<path d="M14.0137 10.6806C13.1961 10.6806 12.4305 10.9978 11.8508 11.5774C11.2738 12.1571 10.9539 12.9228 10.9539 13.7403C10.9539 14.5579 11.2738 15.3235 11.8508 15.9032C12.4305 16.4802 13.1961 16.8001 14.0137 16.8001C14.8312 16.8001 15.5969 16.4802 16.1766 15.9032C16.7535 15.3235 17.0734 14.5579 17.0734 13.7403C17.0734 12.9228 16.7535 12.1571 16.1766 11.5774C15.8934 11.2921 15.5564 11.0659 15.1851 10.912C14.8138 10.758 14.4156 10.6793 14.0137 10.6806ZM25.2875 17.12L23.4992 15.5915C23.584 15.072 23.6277 14.5415 23.6277 14.0138C23.6277 13.486 23.584 12.9528 23.4992 12.436L25.2875 10.9075C25.4226 10.7919 25.5193 10.6378 25.5647 10.4659C25.6101 10.294 25.6021 10.1123 25.5418 9.94502L25.5172 9.87393C25.025 8.49769 24.2876 7.22201 23.3406 6.10869L23.2914 6.05127C23.1764 5.91606 23.0232 5.81886 22.8518 5.77249C22.6805 5.72612 22.4991 5.73275 22.3316 5.7915L20.1113 6.58174C19.291 5.90908 18.3777 5.37861 17.3879 5.00947L16.9586 2.68799C16.9262 2.5131 16.8414 2.35221 16.7154 2.22669C16.5893 2.10117 16.4281 2.01696 16.2531 1.98525L16.1793 1.97158C14.7574 1.71455 13.259 1.71455 11.8371 1.97158L11.7633 1.98525C11.5883 2.01696 11.4271 2.10117 11.301 2.22669C11.175 2.35221 11.0902 2.5131 11.0578 2.68799L10.6258 5.02041C9.64531 5.39249 8.73194 5.92168 7.92148 6.58721L5.68476 5.7915C5.51733 5.73228 5.33583 5.72542 5.1644 5.77182C4.99296 5.81821 4.83971 5.91568 4.725 6.05127L4.67578 6.10869C3.73049 7.2232 2.99324 8.49856 2.49922 9.87393L2.47461 9.94502C2.35156 10.2868 2.45273 10.6696 2.7289 10.9075L4.53906 12.4524C4.45429 12.9665 4.41328 13.4915 4.41328 14.011C4.41328 14.536 4.45429 15.061 4.53906 15.5696L2.73437 17.1146C2.59928 17.2302 2.5026 17.3842 2.45717 17.5562C2.41175 17.7281 2.41974 17.9098 2.48008 18.077L2.50469 18.1481C2.99961 19.5235 3.72969 20.795 4.68125 21.9134L4.73047 21.9708C4.84546 22.106 4.99872 22.2032 5.17005 22.2496C5.34138 22.2959 5.52274 22.2893 5.69023 22.2306L7.92695 21.4349C8.74179 22.1048 9.64961 22.6353 10.6312 23.0017L11.0633 25.3341C11.0957 25.509 11.1805 25.6699 11.3065 25.7954C11.4325 25.9209 11.5937 26.0051 11.7687 26.0368L11.8426 26.0505C13.2784 26.3089 14.7489 26.3089 16.1848 26.0505L16.2586 26.0368C16.4336 26.0051 16.5948 25.9209 16.7208 25.7954C16.8468 25.6699 16.9317 25.509 16.9641 25.3341L17.3934 23.0126C18.3832 22.6407 19.2965 22.113 20.1168 21.4403L22.3371 22.2306C22.5045 22.2898 22.686 22.2967 22.8575 22.2503C23.0289 22.2039 23.1822 22.1064 23.2969 21.9708L23.3461 21.9134C24.2977 20.7896 25.0277 19.5235 25.5227 18.1481L25.5473 18.077C25.6648 17.738 25.5637 17.3579 25.2875 17.12ZM14.0137 18.5474C11.3586 18.5474 9.20664 16.3954 9.20664 13.7403C9.20664 11.0853 11.3586 8.9333 14.0137 8.9333C16.6687 8.9333 18.8207 11.0853 18.8207 13.7403C18.8207 16.3954 16.6687 18.5474 14.0137 18.5474Z" fill="#677083"/>
</svg>
