<svg width="19" height="18" viewBox="0 0 19 18" fill="none" xmlns="http://www.w3.org/2000/svg">
<path fill-rule="evenodd" clip-rule="evenodd" d="M0 18V4C0 2.114 -5.96046e-08 1.172 0.586 0.586C1.172 -5.96046e-08 2.114 0 4 0H14C14.832 0 15.478 -5.02914e-08 16.004 0.027C14.9031 0.149089 13.8859 0.672929 13.1471 1.49824C12.4083 2.32355 11.9999 3.39234 12 4.5V8L11.901 17.967L9 17L6 18L3 17L0 18ZM19 8H14V4.5C14 3.83696 14.2634 3.20107 14.7322 2.73223C15.2011 2.26339 15.837 2 16.5 2C17.163 2 17.7989 2.26339 18.2678 2.73223C18.7366 3.20107 19 3.83696 19 4.5V8ZM2 4C2 3.73478 2.10536 3.48043 2.29289 3.29289C2.48043 3.10536 2.73478 3 3 3H9C9.26522 3 9.51957 3.10536 9.70711 3.29289C9.89464 3.48043 10 3.73478 10 4C10 4.26522 9.89464 4.51957 9.70711 4.70711C9.51957 4.89464 9.26522 5 9 5H3C2.73478 5 2.48043 4.89464 2.29289 4.70711C2.10536 4.51957 2 4.26522 2 4ZM2 8C2 7.73478 2.10536 7.48043 2.29289 7.29289C2.48043 7.10536 2.73478 7 3 7H5C5.26522 7 5.51957 7.10536 5.70711 7.29289C5.89464 7.48043 6 7.73478 6 8C6 8.26522 5.89464 8.51957 5.70711 8.70711C5.51957 8.89464 5.26522 9 5 9H3C2.73478 9 2.48043 8.89464 2.29289 8.70711C2.10536 8.51957 2 8.26522 2 8ZM2 12C2 11.7348 2.10536 11.4804 2.29289 11.2929C2.48043 11.1054 2.73478 11 3 11H7C7.26522 11 7.51957 11.1054 7.70711 11.2929C7.89464 11.4804 8 11.7348 8 12C8 12.2652 7.89464 12.5196 7.70711 12.7071C7.51957 12.8946 7.26522 13 7 13H3C2.73478 13 2.48043 12.8946 2.29289 12.7071C2.10536 12.5196 2 12.2652 2 12Z" fill="#677083"/>
</svg>
