<svg width="26" height="26" viewBox="0 0 26 26" fill="none" xmlns="http://www.w3.org/2000/svg">
<g clip-path="url(#clip0_413_115)">
<path d="M12.669 8.062C11.7578 8.062 10.8671 8.3322 10.1095 8.83842C9.35187 9.34464 8.76138 10.0642 8.41269 10.906C8.06399 11.7478 7.97276 12.6741 8.15052 13.5678C8.32828 14.4615 8.76706 15.2823 9.41136 15.9266C10.0557 16.5709 10.8765 17.0097 11.7702 17.1875C12.6639 17.3652 13.5902 17.274 14.432 16.9253C15.2738 16.5766 15.9934 15.9861 16.4996 15.2285C17.0058 14.4709 17.276 13.5802 17.276 12.669C17.2761 12.064 17.1571 11.4648 16.9256 10.9058C16.6941 10.3468 16.3548 9.83889 15.9269 9.41107C15.4991 8.98324 14.9912 8.6439 14.4322 8.41242C13.8732 8.18094 13.274 8.06187 12.669 8.062ZM22.969 11.517C22.7077 9.18094 21.6597 7.0032 19.9971 5.34152C18.3345 3.67983 16.1562 2.633 13.82 2.373V0H11.52V2.373C9.18437 2.6339 7.00687 3.68124 5.34505 5.34305C3.68324 7.00487 2.6359 9.18237 2.375 11.518H0V13.818H2.373C2.6339 16.1536 3.68124 18.3311 5.34305 19.9929C7.00487 21.6548 9.18237 22.7021 11.518 22.963V25.336H13.818V22.965C16.1536 22.7041 18.3311 21.6568 19.9929 19.9949C21.6548 18.3331 22.7021 16.1556 22.963 13.82H25.336V11.52L22.969 11.517ZM12.669 20.731C11.0745 20.731 9.51578 20.2582 8.18999 19.3723C6.8642 18.4864 5.83088 17.2273 5.22068 15.7542C4.61049 14.2811 4.45083 12.6601 4.76191 11.0962C5.07298 9.53231 5.84081 8.0958 6.96831 6.96831C8.0958 5.84081 9.53231 5.07298 11.0962 4.76191C12.6601 4.45083 14.2811 4.61049 15.7542 5.22068C17.2273 5.83088 18.4864 6.8642 19.3723 8.18999C20.2582 9.51578 20.731 11.0745 20.731 12.669C20.7318 13.7279 20.5238 14.7766 20.1189 15.7551C19.714 16.7336 19.1202 17.6227 18.3715 18.3715C17.6227 19.1202 16.7336 19.714 15.7551 20.1189C14.7766 20.5238 13.7279 20.7318 12.669 20.731Z" fill="#3C3D42"/>
</g>
<defs>
<clipPath id="clip0_413_115">
<rect width="25.338" height="25.338" fill="white"/>
</clipPath>
</defs>
</svg>
