<svg width="18" height="20" viewBox="0 0 18 20" fill="none" xmlns="http://www.w3.org/2000/svg">
<path d="M6.30257 19.1235C5.47639 19.1195 4.65925 18.9501 3.89871 18.6253C3.13818 18.3004 2.44943 17.8266 1.87257 17.2314C1.30003 16.6852 0.840122 16.0308 0.51915 15.3056C0.198178 14.5804 0.0224476 13.7986 0.00201353 13.0049C-0.0184205 12.2113 0.116844 11.4214 0.400065 10.6804C0.683287 9.93944 1.10891 9.26194 1.65257 8.6867L9.01257 1.20886C9.40561 0.814016 9.87408 0.503428 10.3897 0.295853C10.9053 0.0882785 11.4574 -0.0119772 12.0126 0.00113929C12.6073 0.00317747 13.1956 0.124366 13.7433 0.357639C14.291 0.590911 14.7871 0.931598 15.2026 1.35983C16.0296 2.1612 16.5091 3.25849 16.5372 4.41354C16.5653 5.56859 16.1396 6.68818 15.3526 7.52929L7.95257 15.0071C7.71555 15.2473 7.4335 15.4377 7.12279 15.5673C6.81208 15.6968 6.4789 15.763 6.14257 15.762C5.77924 15.7624 5.41951 15.6897 5.08459 15.5479C4.74967 15.4062 4.44636 15.1983 4.19257 14.9367C3.6853 14.4424 3.39234 13.7666 3.37736 13.0561C3.36238 12.3456 3.62659 11.6579 4.11257 11.1424L10.9426 4.23824C11.137 4.10831 11.3704 4.05089 11.6024 4.07592C11.8344 4.10095 12.0504 4.20685 12.213 4.37528C12.3756 4.54371 12.4746 4.76408 12.4928 4.99821C12.511 5.23234 12.4472 5.46551 12.3126 5.65732L5.48257 12.5615C5.36868 12.6996 5.31324 12.8772 5.32821 13.056C5.34317 13.2349 5.42733 13.4006 5.56257 13.5176C5.70328 13.6602 5.89297 13.743 6.09257 13.7491C6.1665 13.7501 6.23992 13.7365 6.30857 13.7088C6.37722 13.6812 6.43976 13.6401 6.49257 13.588L13.8826 6.11022C14.2974 5.64643 14.5142 5.03698 14.4861 4.41361C14.458 3.79025 14.1874 3.20303 13.7326 2.77891C13.3102 2.33752 12.7357 2.07587 12.1275 2.04779C11.5192 2.01971 10.9234 2.22733 10.4626 2.62794L3.07257 10.0655C2.71321 10.454 2.43373 10.9101 2.2502 11.4077C2.06666 11.9053 1.9827 12.4345 2.00315 12.9648C2.0236 13.4952 2.14805 14.0162 2.36934 14.498C2.59063 14.9798 2.90439 15.4128 3.29257 15.772C3.68185 16.1782 4.14764 16.5021 4.66273 16.7251C5.17783 16.948 5.73189 17.0653 6.29257 17.0703C6.77599 17.0743 7.25542 16.9821 7.70332 16.799C8.15123 16.6159 8.55878 16.3456 8.90257 16.0035L16.2926 8.52567C16.3852 8.43183 16.4952 8.35726 16.6164 8.30622C16.7376 8.25519 16.8676 8.22868 16.999 8.22821C17.1304 8.22774 17.2606 8.25332 17.3822 8.3035C17.5038 8.35367 17.6143 8.42746 17.7076 8.52064C17.8008 8.61381 17.8749 8.72456 17.9256 8.84656C17.9763 8.96855 18.0027 9.09941 18.0031 9.23165C18.0036 9.36389 17.9782 9.49493 17.9283 9.61728C17.8785 9.73963 17.8052 9.85091 17.7126 9.94475L10.3226 17.4226C9.79788 17.96 9.1723 18.3871 8.48219 18.6791C7.79207 18.9711 7.05118 19.1221 6.30257 19.1235Z" fill="white"/>
</svg>
