<svg width="24" height="25" viewBox="0 0 24 25" fill="#ABABAB" xmlns="http://www.w3.org/2000/svg">
<path d="M4 8.5H2V20.5C2 21.0304 2.21071 21.5391 2.58579 21.9142C2.96086 22.2893 3.46957 22.5 4 22.5H16V20.5H4V8.5Z" fill=""/>
<path d="M20 2.5H8C7.46957 2.5 6.96086 2.71071 6.58579 3.08579C6.21071 3.46086 6 3.96957 6 4.5V16.5C6 17.0304 6.21071 17.5391 6.58579 17.9142C6.96086 18.2893 7.46957 18.5 8 18.5H20C20.5304 18.5 21.0391 18.2893 21.4142 17.9142C21.7893 17.5391 22 17.0304 22 16.5V4.5C22 3.96957 21.7893 3.46086 21.4142 3.08579C21.0391 2.71071 20.5304 2.5 20 2.5ZM11 14.5V6.5L18 10.5L11 14.5Z" fill=""/>
</svg>
