<svg width="25" height="24" viewBox="0 0 25 24" fill="none" xmlns="http://www.w3.org/2000/svg">
<path d="M4.5 8H2.5V20C2.5 20.5304 2.71071 21.0391 3.08579 21.4142C3.46086 21.7893 3.96957 22 4.5 22H16.5V20H4.5V8Z" fill="#18C0C1"/>
<path d="M20.5 2H8.5C7.96957 2 7.46086 2.21071 7.08579 2.58579C6.71071 2.96086 6.5 3.46957 6.5 4V16C6.5 16.5304 6.71071 17.0391 7.08579 17.4142C7.46086 17.7893 7.96957 18 8.5 18H20.5C21.0304 18 21.5391 17.7893 21.9142 17.4142C22.2893 17.0391 22.5 16.5304 22.5 16V4C22.5 3.46957 22.2893 2.96086 21.9142 2.58579C21.5391 2.21071 21.0304 2 20.5 2ZM11.5 14V6L18.5 10L11.5 14Z" fill="#18C0C1"/>
</svg>
