<svg width="28" height="14" viewBox="0 0 28 14" fill="none" xmlns="http://www.w3.org/2000/svg">
<path d="M8.63332 1.16675H5.36666C5.181 1.16675 5.00296 1.2405 4.87168 1.37177C4.74041 1.50305 4.66666 1.6811 4.66666 1.86675V12.1334C4.66666 12.2253 4.68476 12.3164 4.71994 12.4013C4.75512 12.4862 4.80668 12.5634 4.87168 12.6284C4.93668 12.6934 5.01385 12.745 5.09878 12.7801C5.18371 12.8153 5.27473 12.8334 5.36666 12.8334H8.63332C8.72525 12.8334 8.81627 12.8153 8.9012 12.7801C8.98613 12.745 9.0633 12.6934 9.1283 12.6284C9.1933 12.5634 9.24486 12.4862 9.28004 12.4013C9.31522 12.3164 9.33332 12.2253 9.33332 12.1334V1.86675C9.33332 1.6811 9.25957 1.50305 9.1283 1.37177C8.99702 1.2405 8.81897 1.16675 8.63332 1.16675ZM22.6333 1.16675H19.3667C19.181 1.16675 19.003 1.2405 18.8717 1.37177C18.7404 1.50305 18.6667 1.6811 18.6667 1.86675V12.1334C18.6667 12.2253 18.6848 12.3164 18.7199 12.4013C18.7551 12.4862 18.8067 12.5634 18.8717 12.6284C18.9367 12.6934 19.0138 12.745 19.0988 12.7801C19.1837 12.8153 19.2747 12.8334 19.3667 12.8334H22.6333C22.7252 12.8334 22.8163 12.8153 22.9012 12.7801C22.9861 12.745 23.0633 12.6934 23.1283 12.6284C23.1933 12.5634 23.2449 12.4862 23.28 12.4013C23.3152 12.3164 23.3333 12.2253 23.3333 12.1334V1.86675C23.3333 1.6811 23.2596 1.50305 23.1283 1.37177C22.997 1.2405 22.819 1.16675 22.6333 1.16675Z" stroke="#677083" stroke-width="1.5" stroke-linecap="round" stroke-linejoin="round"/>
<path d="M9.33332 7H18.6667M1.16666 9.8V4.2C1.16666 4.01435 1.24041 3.8363 1.37168 3.70502C1.50296 3.57375 1.68101 3.5 1.86666 3.5H3.96666C4.15231 3.5 4.33036 3.57375 4.46163 3.70502C4.59291 3.8363 4.66666 4.01435 4.66666 4.2V9.8C4.66666 9.98565 4.59291 10.1637 4.46163 10.295C4.33036 10.4263 4.15231 10.5 3.96666 10.5H1.86666C1.68101 10.5 1.50296 10.4263 1.37168 10.295C1.24041 10.1637 1.16666 9.98565 1.16666 9.8ZM26.8333 9.8V4.2C26.8333 4.01435 26.7596 3.8363 26.6283 3.70502C26.497 3.57375 26.319 3.5 26.1333 3.5H24.0333C23.8477 3.5 23.6696 3.57375 23.5383 3.70502C23.4071 3.8363 23.3333 4.01435 23.3333 4.2V9.8C23.3333 9.98565 23.4071 10.1637 23.5383 10.295C23.6696 10.4263 23.8477 10.5 24.0333 10.5H26.1333C26.319 10.5 26.497 10.4263 26.6283 10.295C26.7596 10.1637 26.8333 9.98565 26.8333 9.8Z" stroke="#677083" stroke-width="1.5" stroke-linecap="round" stroke-linejoin="round"/>
</svg>
