<svg width="28" height="32" viewBox="0 0 40 36" fill="none" xmlns="http://www.w3.org/2000/svg">
<path d="M20.0002 0.75C22.0335 0.75 23.9835 1.55774 25.4213 2.99551C26.8591 4.43329 27.6668 6.38334 27.6668 8.41667C27.6668 9.81583 27.3027 11.1192 26.6318 12.25H31.5002C33.321 12.25 34.8543 13.5342 35.2377 15.24C39.0902 30.5925 39.1668 30.995 39.1668 31.4167C39.1668 32.4333 38.763 33.4084 38.0441 34.1272C37.3252 34.8461 36.3502 35.25 35.3335 35.25H4.66683C3.65017 35.25 2.67514 34.8461 1.95625 34.1272C1.23736 33.4084 0.833496 32.4333 0.833496 31.4167C0.833496 30.995 0.910163 30.5925 4.76266 15.24C5.146 13.5342 6.67933 12.25 8.50016 12.25H13.3685C12.6833 11.0893 12.3257 9.76451 12.3335 8.41667C12.3335 6.38334 13.1412 4.43329 14.579 2.99551C16.0168 1.55774 17.9668 0.75 20.0002 0.75ZM20.0002 4.58333C18.9835 4.58333 18.0085 4.9872 17.2896 5.70609C16.5707 6.42498 16.1668 7.4 16.1668 8.41667C16.1668 9.43333 16.5707 10.4084 17.2896 11.1272C18.0085 11.8461 18.9835 12.25 20.0002 12.25C21.0168 12.25 21.9918 11.8461 22.7107 11.1272C23.4296 10.4084 23.8335 9.43333 23.8335 8.41667C23.8335 7.4 23.4296 6.42498 22.7107 5.70609C21.9918 4.9872 21.0168 4.58333 20.0002 4.58333ZM8.50016 16.0833V31.4167H18.0835V27.5833H12.3335V16.0833H8.50016ZM21.9168 16.0833V31.4167H27.6668C29.7943 31.4167 31.5002 29.7108 31.5002 27.5833V26.625C31.5002 25.5325 31.021 24.4783 30.1968 23.75C31.021 23.0217 31.5002 21.9675 31.5002 20.875V19.9167C31.5002 17.7892 29.7943 16.0833 27.6668 16.0833H21.9168ZM25.7502 19.9167H27.6668V21.8333H25.7502V19.9167ZM25.7502 25.6667H27.6668V27.5833H25.7502V25.6667Z" fill="#ABABAB"/>
</svg>
